<?xml version="1.0" standalone="no"?>
<!DOCTYPE svg PUBLIC "-//W3C//DTD SVG 20010904//EN"
 "http://www.w3.org/TR/2001/REC-SVG-20010904/DTD/svg10.dtd">
<svg version="1.0" xmlns="http://www.w3.org/2000/svg"
 width="260.000000pt" height="260.000000pt" viewBox="0 0 260.000000 260.000000"
 preserveAspectRatio="xMidYMid meet">
<metadata>
Created by potrace 1.11, written by Peter Selinger 2001-2013
</metadata>
<g transform="translate(0.000000,260.000000) scale(0.100000,-0.100000)"
fill="#000000" stroke="none">
<path d="M977 1994 c-12 -12 4 -24 33 -24 16 0 32 -4 35 -10 3 -5 12 -10 20
-10 8 0 26 -11 41 -25 15 -14 33 -25 40 -25 8 0 14 -4 14 -9 0 -5 9 -11 19
-14 37 -9 61 -81 61 -183 l0 -93 -62 -35 c-85 -47 -200 -103 -223 -107 -10 -2
-19 -8 -19 -14 -1 -6 40 -12 94 -15 178 -10 295 -74 356 -192 21 -41 24 -61
24 -152 0 -63 -5 -116 -12 -133 -17 -37 -115 -135 -153 -153 -16 -8 -41 -21
-55 -30 -28 -18 -122 -48 -160 -52 -36 -4 -31 -22 8 -26 40 -4 182 43 182 60
0 5 9 8 20 8 11 0 20 5 20 10 0 6 7 10 16 10 21 0 132 116 150 157 9 22 14 70
14 145 0 100 -3 119 -25 167 -27 57 -73 107 -135 146 -41 26 -159 65 -199 65
-24 1 -23 2 14 22 22 11 54 32 71 44 17 13 37 24 46 24 8 0 24 9 36 20 20 19
22 31 22 124 0 132 -24 189 -92 224 -25 12 -53 31 -63 42 -10 11 -26 20 -36
20 -10 0 -21 5 -24 10 -7 11 -68 14 -78 4z"/>
<path d="M895 1938 c-3 -7 -4 -283 -3 -612 2 -469 6 -600 16 -604 16 -5 18
1213 2 1223 -6 3 -12 0 -15 -7z"/>
<path d="M605 1907 c-8 -20 -15 -43 -15 -50 0 -8 -18 -50 -40 -93 -41 -81 -95
-207 -110 -258 -8 -25 -41 -106 -97 -239 -13 -29 -21 -37 -35 -34 -25 7 -35
-13 -14 -29 17 -12 15 -19 -27 -111 -25 -54 -64 -143 -87 -198 -23 -55 -48
-107 -55 -115 -7 -8 -16 -25 -19 -37 -6 -18 -3 -23 11 -23 12 0 27 20 45 59
16 32 28 61 28 64 0 4 18 45 40 92 22 47 40 88 40 91 0 3 16 38 35 77 19 39
35 76 35 83 0 10 40 14 164 16 l164 3 6 -35 c3 -19 6 -46 6 -58 0 -13 6 -38
14 -55 7 -18 22 -61 31 -97 10 -36 21 -69 25 -75 3 -5 12 -35 19 -65 20 -86
21 -90 37 -90 8 0 14 3 14 6 0 11 -33 139 -41 159 -4 11 -16 47 -25 80 -9 33
-22 74 -29 90 -7 17 -16 56 -20 88 l-6 57 36 0 c49 0 42 24 -8 28 -36 3 -37 4
-37 46 0 24 -7 65 -17 92 -12 37 -18 102 -22 269 -4 162 -9 219 -18 218 -9 -2
-9 5 -1 28 7 22 7 34 -1 42 -8 8 -15 1 -26 -26z m38 -532 c22 -54 22 -131 1
-139 -9 -3 -76 -6 -149 -6 l-133 0 35 88 c19 48 48 119 63 157 15 39 40 99 55
135 15 36 35 83 44 105 9 22 25 55 36 73 l20 33 6 -203 c5 -151 10 -213 22
-243z"/>
<path d="M1556 899 c-20 -40 -23 -228 -4 -247 7 -7 42 -12 88 -12 111 0 140
31 140 154 l0 73 -37 25 c-26 17 -59 27 -105 32 l-66 6 -16 -31z m164 -29 c27
-19 30 -27 30 -78 0 -39 -6 -67 -20 -89 -19 -32 -21 -33 -90 -33 l-70 0 0 95
c0 58 5 101 11 108 7 7 34 13 61 15 37 2 56 -2 78 -18z"/>
<path d="M1833 904 c-5 -15 23 -54 60 -82 9 -7 17 -19 17 -27 0 -8 10 -23 21
-34 21 -19 21 -21 5 -46 -22 -33 -38 -117 -25 -130 13 -13 26 8 34 59 3 23 12
49 20 60 13 18 18 15 86 -48 39 -36 75 -66 80 -66 17 0 9 30 -12 48 -11 9 -43
38 -70 63 l-50 46 23 39 c12 21 35 56 51 76 16 20 26 41 22 47 -14 24 -22 15
-92 -98 -26 -42 -43 -45 -59 -13 -6 13 -23 35 -37 50 -13 15 -30 37 -36 50
-14 26 -29 29 -38 6z"/>
</g>
</svg>
